<svg width="12" height="10" viewBox="0 0 12 10" fill="none" xmlns="http://www.w3.org/2000/svg">
<path fill-rule="evenodd" clip-rule="evenodd" d="M0 0.75C0 0.335786 0.335786 0 0.75 0H10.75C11.1642 0 11.5 0.335786 11.5 0.75C11.5 1.16421 11.1642 1.5 10.75 1.5H0.75C0.335786 1.5 0 1.16421 0 0.75ZM0 4.75C0 4.33579 0.335786 4 0.75 4H10.75C11.1642 4 11.5 4.33579 11.5 4.75C11.5 5.16421 11.1642 5.5 10.75 5.5H0.75C0.335786 5.5 0 5.16421 0 4.75ZM0 8.75C0 8.33579 0.335786 8 0.75 8H10.75C11.1642 8 11.5 8.33579 11.5 8.75C11.5 9.16421 11.1642 9.5 10.75 9.5H0.75C0.335786 9.5 0 9.16421 0 8.75Z" fill="#394D45"/>
</svg>
